<svg xmlns="http://www.w3.org/2000/svg" xmlns:xlink="http://www.w3.org/1999/xlink" width="432" zoomAndPan="magnify" viewBox="0 0 324 323.999988" height="432" preserveAspectRatio="xMidYMid meet" version="1.0"><defs><clipPath id="0a86ff6ad6"><path d="M 0 2.167969 L 222 2.167969 L 222 323.917969 L 0 323.917969 Z M 0 2.167969 " clip-rule="nonzero"/></clipPath></defs><path fill="#ffffff" d="M 94.863281 1.113281 C 77.636719 1.921875 65.867188 4.683594 55.582031 8.714844 C 44.929688 12.867188 35.910156 18.421875 26.9375 27.441406 C 17.949219 36.460938 12.421875 45.496094 8.316406 56.160156 C 4.335938 66.480469 1.632812 78.246094 0.871094 95.492188 C 0.105469 112.75 -0.0625 118.261719 0.015625 162.246094 C 0.0898438 206.210938 0.289062 211.738281 1.113281 229.011719 C 1.9375 246.242188 4.683594 257.996094 8.714844 268.296875 C 12.867188 278.949219 18.421875 287.953125 27.441406 296.941406 C 36.460938 305.929688 45.496094 311.441406 56.160156 315.558594 C 66.464844 319.542969 78.246094 322.261719 95.476562 323.007812 C 112.75 323.769531 118.261719 323.9375 162.230469 323.847656 C 206.210938 323.769531 211.722656 323.574219 228.996094 322.75 C 246.226562 321.925781 257.980469 319.160156 268.28125 315.148438 C 278.933594 310.980469 287.953125 305.441406 296.925781 296.421875 C 305.898438 287.402344 311.425781 278.367188 315.546875 267.699219 C 319.527344 257.398438 322.246094 245.617188 322.992188 228.402344 C 323.742188 211.125 323.921875 205.601562 323.847656 161.632812 C 323.769531 117.664062 323.558594 112.15625 322.75 94.878906 C 321.925781 77.636719 319.175781 65.882812 315.148438 55.582031 C 310.980469 44.929688 305.441406 35.925781 296.421875 26.9375 C 287.402344 17.960938 278.367188 12.421875 267.699219 8.316406 C 257.398438 4.335938 245.617188 1.617188 228.386719 0.871094 C 211.109375 0.105469 205.585938 -0.0625 161.617188 0.015625 C 117.648438 0.0898438 112.140625 0.289062 94.863281 1.113281 M 96.757812 293.84375 C 80.976562 293.15625 72.398438 290.53125 66.675781 288.335938 C 59.109375 285.402344 53.71875 281.894531 48.027344 276.261719 C 42.351562 270.601562 38.839844 265.214844 35.878906 257.671875 C 33.667969 251.964844 30.996094 243.40625 30.25 227.609375 C 29.4375 210.546875 29.257812 205.417969 29.179688 162.183594 C 29.105469 118.960938 29.257812 113.835938 30.003906 96.757812 C 30.675781 80.976562 33.316406 72.398438 35.511719 66.691406 C 38.445312 59.121094 41.9375 53.734375 47.585938 48.042969 C 53.246094 42.367188 58.632812 38.855469 66.1875 35.894531 C 71.898438 33.667969 80.457031 31.011719 96.238281 30.261719 C 113.316406 29.453125 118.429688 29.285156 161.664062 29.195312 C 204.898438 29.105469 210.027344 29.257812 227.105469 30.019531 C 242.886719 30.707031 251.460938 33.316406 257.171875 35.527344 C 264.738281 38.457031 270.140625 41.9375 275.820312 47.601562 C 281.496094 53.261719 285.023438 58.632812 287.96875 66.203125 C 290.195312 71.898438 292.851562 80.472656 293.597656 96.238281 C 294.40625 113.316406 294.589844 118.445312 294.667969 161.664062 C 294.742188 204.898438 294.589844 210.027344 293.84375 227.089844 C 293.15625 242.871094 290.53125 251.460938 288.335938 257.171875 C 285.402344 264.726562 281.910156 270.128906 276.246094 275.804688 C 270.585938 281.464844 265.214844 284.992188 257.644531 287.953125 C 251.949219 290.179688 243.375 292.835938 227.609375 293.585938 C 210.53125 294.394531 205.417969 294.574219 162.167969 294.652344 C 118.949219 294.730469 113.820312 294.574219 96.742188 293.828125 M 228.769531 75.375 C 228.785156 86.105469 237.511719 94.789062 248.226562 94.757812 C 258.957031 94.742188 267.640625 86.027344 267.625 75.300781 C 267.609375 64.570312 258.878906 55.886719 248.152344 55.902344 C 237.421875 55.917969 228.738281 64.648438 228.753906 75.359375 M 78.78125 162.089844 C 78.871094 208.011719 116.171875 245.160156 162.078125 245.066406 C 207.996094 244.976562 245.160156 207.691406 245.066406 161.769531 C 244.976562 115.863281 207.675781 78.703125 161.753906 78.78125 C 115.847656 78.871094 78.6875 116.171875 78.78125 162.089844 M 107.945312 162.03125 C 107.898438 132.226562 132.011719 108.003906 161.816406 107.960938 C 191.621094 107.898438 215.84375 132.011719 215.902344 161.832031 C 215.964844 191.636719 191.835938 215.859375 162.03125 215.902344 C 132.226562 215.964844 108.003906 191.835938 107.960938 162.03125 " fill-opacity="1" fill-rule="nonzero"/><g clip-path="url(#0a86ff6ad6)"><path fill="#ffffff" d="M 94.863281 1.113281 C 77.636719 1.921875 65.867188 4.683594 55.582031 8.714844 C 44.929688 12.867188 35.910156 18.421875 26.9375 27.441406 C 17.949219 36.460938 12.421875 45.496094 8.316406 56.160156 C 4.335938 66.480469 1.632812 78.246094 0.871094 95.492188 C 0.105469 112.75 -0.0625 118.261719 0.015625 162.246094 C 0.0898438 206.210938 0.289062 211.738281 1.113281 229.011719 C 1.9375 246.242188 4.683594 257.996094 8.714844 268.296875 C 12.867188 278.949219 18.421875 287.953125 27.441406 296.941406 C 36.460938 305.929688 45.496094 311.441406 56.160156 315.558594 C 66.464844 319.542969 78.246094 322.261719 95.476562 323.007812 C 112.75 323.769531 118.261719 323.9375 162.230469 323.847656 C 206.210938 323.769531 211.722656 323.574219 228.996094 322.75 C 246.226562 321.925781 257.980469 319.160156 268.28125 315.148438 C 278.933594 310.980469 287.953125 305.441406 296.925781 296.421875 C 305.898438 287.402344 311.425781 278.367188 315.546875 267.699219 C 319.527344 257.398438 322.246094 245.617188 322.992188 228.402344 C 323.742188 211.125 323.921875 205.601562 323.847656 161.632812 C 323.769531 117.664062 323.558594 112.15625 322.75 94.878906 C 321.925781 77.636719 319.175781 65.882812 315.148438 55.582031 C 310.980469 44.929688 305.441406 35.925781 296.421875 26.9375 C 287.402344 17.960938 278.367188 12.421875 267.699219 8.316406 C 257.398438 4.335938 245.617188 1.617188 228.386719 0.871094 C 211.109375 0.105469 205.585938 -0.0625 161.617188 0.015625 C 117.648438 0.0898438 112.140625 0.289062 94.863281 1.113281 M 96.757812 293.84375 C 80.976562 293.15625 72.398438 290.53125 66.675781 288.335938 C 59.109375 285.402344 53.71875 281.894531 48.027344 276.261719 C 42.351562 270.601562 38.839844 265.214844 35.878906 257.671875 C 33.667969 251.964844 30.996094 243.40625 30.25 227.609375 C 29.4375 210.546875 29.257812 205.417969 29.179688 162.183594 C 29.105469 118.960938 29.257812 113.835938 30.003906 96.757812 C 30.675781 80.976562 33.316406 72.398438 35.511719 66.691406 C 38.445312 59.121094 41.9375 53.734375 47.585938 48.042969 C 53.246094 42.367188 58.632812 38.855469 66.1875 35.894531 C 71.898438 33.667969 80.457031 31.011719 96.238281 30.261719 C 113.316406 29.453125 118.429688 29.285156 161.664062 29.195312 C 204.898438 29.105469 210.027344 29.257812 227.105469 30.019531 C 242.886719 30.707031 251.460938 33.316406 257.171875 35.527344 C 264.738281 38.457031 270.140625 41.9375 275.820312 47.601562 C 281.496094 53.261719 285.023438 58.632812 287.96875 66.203125 C 290.195312 71.898438 292.851562 80.472656 293.597656 96.238281 C 294.40625 113.316406 294.589844 118.445312 294.667969 161.664062 C 294.742188 204.898438 294.589844 210.027344 293.84375 227.089844 C 293.15625 242.871094 290.53125 251.460938 288.335938 257.171875 C 285.402344 264.726562 281.910156 270.128906 276.246094 275.804688 C 270.585938 281.464844 265.214844 284.992188 257.644531 287.953125 C 251.949219 290.179688 243.375 292.835938 227.609375 293.585938 C 210.53125 294.394531 205.417969 294.574219 162.167969 294.652344 C 118.949219 294.730469 113.820312 294.574219 96.742188 293.828125 M 228.769531 75.375 C 228.785156 86.105469 237.511719 94.789062 248.226562 94.757812 C 258.957031 94.742188 267.640625 86.027344 267.625 75.300781 C 267.609375 64.570312 258.878906 55.886719 248.152344 55.902344 C 237.421875 55.917969 228.738281 64.648438 228.753906 75.359375 M 78.78125 162.089844 C 78.871094 208.011719 116.171875 245.160156 162.078125 245.066406 C 207.996094 244.976562 245.160156 207.691406 245.066406 161.769531 C 244.976562 115.863281 207.675781 78.703125 161.753906 78.78125 C 115.847656 78.871094 78.6875 116.171875 78.78125 162.089844 M 107.945312 162.03125 C 107.898438 132.226562 132.011719 108.003906 161.816406 107.960938 C 191.621094 107.898438 215.84375 132.011719 215.902344 161.832031 C 215.964844 191.636719 191.835938 215.859375 162.03125 215.902344 C 132.226562 215.964844 108.003906 191.835938 107.960938 162.03125 " fill-opacity="1" fill-rule="nonzero"/></g></svg>